<svg xmlns="http://www.w3.org/2000/svg" width="1100" height="420" viewBox="0 0 1100 420">
<rect width="100%" height="100%" fill="white"/>
<text x="48" y="28" font-family="sans-serif" font-size="18">laus_unemployment_rate: Raw LAUS vs MA3 / MA6 / MA9</text>
<polyline points="48.0,329.3 52.2,316.7 56.4,309.7 60.6,318.3 64.8,327.8 69.0,338.3 73.2,335.8 77.4,342.9 81.6,321.8 85.8,330.3 90.0,336.3 94.2,345.4 98.4,343.4 102.6,325.8 106.8,320.8 111.0,329.3 115.2,331.8 119.4,336.3 123.6,337.8 127.8,334.8 132.0,316.7 136.2,323.8 140.4,319.8 144.6,330.3 148.8,309.7 153.0,291.6 157.2,279.6 161.4,276.1 165.6,279.6 169.8,273.5 174.0,268.5 178.2,256.5 182.4,219.3 186.6,206.7 190.8,204.2 195.0,213.3 199.2,195.2 203.4,174.1 207.6,170.1 211.8,169.6 216.0,167.1 220.2,166.5 224.4,175.6 228.6,174.6 232.8,152.5 237.0,160.0 241.2,162.5 245.4,182.1 249.6,182.6 253.8,170.1 258.0,165.0 262.2,168.1 266.4,176.6 270.6,180.6 274.8,177.1 279.0,187.6 283.2,169.1 287.4,175.6 291.6,180.6 295.8,194.7 300.1,187.1 304.3,166.0 308.5,167.6 312.7,171.6 316.9,177.1 321.1,188.1 325.3,200.2 329.5,201.7 333.7,186.1 337.9,187.6 342.1,196.2 346.3,217.8 350.5,208.2 354.7,191.7 358.9,187.1 363.1,196.2 367.3,214.3 371.5,215.8 375.7,226.3 379.9,220.8 384.1,198.2 388.3,211.8 392.5,221.8 396.7,237.4 400.9,227.3 405.1,207.7 409.3,211.8 413.5,220.8 417.7,230.8 421.9,226.8 426.1,251.4 430.3,262.0 434.5,245.9 438.7,245.4 442.9,248.9 447.1,277.6 451.3,265.0 455.5,256.0 459.7,244.4 463.9,249.9 468.1,267.0 472.3,274.5 476.5,279.1 480.7,288.1 484.9,267.5 489.1,276.1 493.3,284.1 497.5,296.7 501.7,285.6 505.9,282.1 510.1,280.1 514.3,291.1 518.5,301.7 522.7,305.2 526.9,311.7 531.1,320.3 535.3,310.2 539.5,314.7 543.7,315.7 547.9,328.8 552.1,330.3 556.3,310.7 560.5,306.7 564.7,310.2 568.9,314.7 573.1,318.8 577.3,329.3 581.5,334.3 585.7,315.2 589.9,319.3 594.1,328.8 598.3,340.9 602.5,334.8 606.7,321.8 610.9,315.2 615.1,316.7 619.3,330.3 623.5,333.3 627.7,336.8 631.9,342.4 636.1,325.3 640.3,329.3 644.5,333.8 648.7,349.9 652.9,350.4 657.1,327.3 661.3,330.3 665.5,335.3 669.7,347.9 673.9,349.9 678.1,356.4 682.3,353.4 686.5,326.8 690.7,342.4 694.9,345.9 699.1,366.0 703.3,359.9 707.5,344.9 711.7,338.8 715.9,343.9 720.1,357.4 724.3,356.4 728.5,360.9 732.7,362.5 736.9,343.9 741.1,347.9 745.3,312.2 749.5,66.1 753.7,48.0 757.9,62.1 762.1,61.6 766.3,107.3 770.5,173.6 774.7,198.7 778.9,204.7 783.1,213.8 787.3,211.8 791.5,217.3 795.7,222.8 799.9,232.9 804.2,243.4 808.4,221.3 812.6,234.9 816.8,246.9 821.0,281.6 825.2,297.7 829.4,314.2 833.6,330.8 837.8,312.7 842.0,327.3 846.2,339.9 850.4,357.9 854.6,357.9 858.8,344.4 863.0,348.4 867.2,349.4 871.4,364.5 875.6,359.9 879.8,363.5 884.0,370.5 888.2,351.4 892.4,348.4 896.6,354.9 900.8,372.0 905.0,359.4 909.2,346.9 913.4,343.9 917.6,334.3 921.8,344.4 926.0,342.9 930.2,350.4 934.4,349.4 938.6,332.8 942.8,331.3 947.0,336.8 951.2,348.9 955.4,340.9 959.6,319.8 963.8,307.7 968.0,308.7 972.2,328.8 976.4,326.3 980.6,325.8 984.8,334.8 989.0,317.7 993.2,312.2 997.4,313.2 1001.6,325.3 1005.8,315.7 1010.0,301.2 1014.2,291.6 1018.4,287.1 1022.6,293.6 1026.8,301.7 1031.0,316.7 1035.2,302.2 1039.4,297.7 1043.6,312.2 1047.8,319.3 1052.0,279.1" fill="none" stroke="#2563eb" stroke-width="1.6"/>
<text x="48" y="408" font-family="sans-serif" font-size="12" fill="#2563eb">Raw LAUS</text>
<polyline points="48.0,318.6 52.2,314.9 56.4,318.6 60.7,328.1 64.9,334.0 69.1,339.0 73.3,333.5 77.5,331.6 81.7,329.5 86.0,337.3 90.2,341.7 94.4,338.2 98.6,330.0 102.8,325.3 107.1,327.3 111.3,332.5 115.5,335.3 119.7,336.3 123.9,329.8 128.2,325.1 132.4,320.1 136.6,324.6 140.8,319.9 145.0,310.5 149.2,293.6 153.5,282.4 157.7,278.4 161.9,276.4 166.1,273.9 170.3,266.2 174.6,248.1 178.8,227.5 183.0,210.1 187.2,208.1 191.4,204.2 195.6,194.2 199.9,179.8 204.1,171.2 208.3,168.9 212.5,167.7 216.7,169.7 221.0,172.2 225.2,167.6 229.4,162.4 233.6,158.3 237.8,168.2 242.1,175.8 246.3,178.3 250.5,172.6 254.7,167.7 258.9,169.9 263.1,175.1 267.4,178.1 271.6,181.8 275.8,177.9 280.0,177.4 284.2,175.1 288.5,183.6 292.7,187.5 296.9,182.6 301.1,173.6 305.3,168.4 309.5,172.1 313.8,178.9 318.0,188.5 322.2,196.7 326.4,196.0 330.6,191.8 334.9,190.0 339.1,200.5 343.3,207.4 347.5,205.9 351.7,195.7 355.9,191.7 360.2,199.2 364.4,208.7 368.6,218.8 372.8,221.0 377.0,215.1 381.3,210.3 385.5,210.6 389.7,223.6 393.9,228.8 398.1,224.1 402.4,215.6 406.6,213.4 410.8,221.1 415.0,226.2 419.2,236.4 423.4,246.8 427.7,253.1 431.9,251.1 436.1,246.8 440.3,257.3 444.5,263.8 448.8,266.2 453.0,255.1 457.2,250.1 461.4,253.8 465.6,263.8 469.8,273.5 474.1,280.6 478.3,278.2 482.5,277.2 486.7,275.9 490.9,285.6 495.2,288.8 499.4,288.1 503.6,282.6 507.8,284.4 512.0,291.0 516.3,299.3 520.5,306.2 524.7,312.4 528.9,314.1 533.1,315.1 537.3,313.6 541.6,319.8 545.8,324.9 550.0,323.3 554.2,315.9 558.4,309.2 562.7,310.5 566.9,314.6 571.1,320.9 575.3,327.5 579.5,326.3 583.7,322.9 588.0,321.1 592.2,329.6 596.4,334.8 600.6,332.5 604.8,323.9 609.1,317.9 613.3,320.8 617.5,326.8 621.7,333.5 625.9,337.5 630.2,334.8 634.4,332.3 638.6,329.5 642.8,337.7 647.0,344.7 651.2,342.5 655.5,336.0 659.7,331.0 663.9,337.8 668.1,344.4 672.3,351.4 676.6,353.2 680.8,345.5 685.0,340.9 689.2,338.3 693.4,351.4 697.6,357.3 701.9,356.9 706.1,347.9 710.3,342.5 714.5,346.7 718.7,352.6 723.0,358.3 727.2,359.9 731.4,355.8 735.6,351.4 739.8,334.7 744.1,242.1 748.3,142.1 752.5,58.7 756.7,57.2 760.9,77.0 765.1,114.1 769.4,159.9 773.6,192.3 777.8,205.7 782.0,210.1 786.2,214.3 790.5,217.3 794.7,224.3 798.9,233.0 803.1,232.5 807.3,233.2 811.5,234.4 815.8,254.5 820.0,275.4 824.2,297.8 828.4,314.2 832.6,319.3 836.9,323.6 841.1,326.6 845.3,341.7 849.5,351.9 853.7,353.4 857.9,350.2 862.2,347.4 866.4,354.1 870.6,357.9 874.8,362.6 879.0,364.6 883.3,361.8 887.5,356.8 891.7,351.6 895.9,358.4 900.1,362.1 904.4,359.4 908.6,350.1 912.8,341.7 917.0,340.9 921.2,340.5 925.4,345.9 929.7,347.6 933.9,344.2 938.1,337.8 942.3,333.7 946.5,339.0 950.8,342.2 955.0,336.5 959.2,322.8 963.4,312.1 967.6,315.1 971.8,321.3 976.1,327.0 980.3,329.0 984.5,326.1 988.7,321.6 992.9,314.4 997.2,316.9 1001.4,318.1 1005.6,314.1 1009.8,302.8 1014.0,293.3 1018.3,290.8 1022.5,290.4 1026.7,297.7 1030.9,309.2 1035.1,306.9 1039.3,305.5 1043.6,304.0 1047.8,309.7 1052.0,284.9" fill="none" stroke="#dc2626" stroke-width="1.6"/>
<text x="198" y="408" font-family="sans-serif" font-size="12" fill="#dc2626">MA3</text>
<polyline points="48.0,323.4 52.3,324.4 56.5,328.8 60.8,330.8 65.1,332.8 69.4,334.2 73.6,335.4 77.9,336.7 82.2,333.8 86.5,333.7 90.7,333.5 95.0,332.7 99.3,331.2 103.5,330.3 107.8,331.8 112.1,331.1 116.4,330.2 120.6,328.2 124.9,327.2 129.2,322.5 133.4,315.3 137.7,309.1 142.0,301.2 146.3,294.5 150.5,285.0 154.8,278.1 159.1,272.3 163.4,262.2 167.6,250.7 171.9,238.1 176.2,228.1 180.4,215.9 184.7,202.1 189.0,193.9 193.3,187.7 197.5,181.5 201.8,173.7 206.1,170.5 210.3,170.6 214.6,167.6 218.9,166.0 223.2,165.3 227.4,167.9 231.7,169.1 236.0,168.3 240.3,170.4 244.5,171.7 248.8,174.1 253.1,173.8 257.3,172.9 261.6,175.8 265.9,176.5 270.2,177.8 274.4,178.4 278.7,180.8 283.0,182.5 287.3,178.9 291.5,178.6 295.8,177.9 300.1,177.3 304.3,176.3 308.6,178.4 312.9,184.4 317.2,187.5 321.4,190.2 325.7,193.3 330.0,198.3 334.2,199.6 338.5,197.9 342.8,198.1 347.1,199.5 351.3,202.5 355.6,202.2 359.9,205.2 364.2,210.1 368.4,211.9 372.7,214.5 377.0,215.8 381.2,219.4 385.5,219.5 389.8,217.4 394.1,219.6 398.3,221.1 402.6,222.6 406.9,220.9 411.1,224.9 415.4,233.9 419.7,239.6 424.0,243.7 428.2,246.8 432.5,255.2 436.8,257.5 441.1,256.5 445.3,256.2 449.6,257.0 453.9,260.0 458.1,259.5 462.4,261.8 466.7,267.2 471.0,271.0 475.2,275.4 479.5,278.2 483.8,281.9 488.1,283.0 492.3,282.0 496.6,284.1 500.9,286.6 505.1,289.5 509.4,291.0 513.7,295.3 518.0,301.7 522.2,306.7 526.5,310.6 530.8,313.0 535.0,316.9 539.3,320.0 543.6,318.4 547.9,317.8 552.1,317.1 556.4,316.9 560.7,315.2 565.0,315.1 569.2,319.0 573.5,320.4 577.8,321.9 582.0,324.3 586.3,328.0 590.6,328.9 594.9,326.8 599.1,326.8 603.4,326.4 607.7,326.6 611.9,325.4 616.2,325.7 620.5,329.1 624.8,330.8 629.0,332.9 633.3,333.5 637.6,336.3 641.9,338.5 646.1,336.0 650.4,336.8 654.7,337.8 658.9,340.2 663.2,340.2 667.5,341.2 671.8,345.5 676.0,345.0 680.3,346.1 684.6,345.8 688.9,348.5 693.1,349.1 697.4,347.6 701.7,349.6 705.9,349.9 710.2,351.8 714.5,350.2 718.8,350.4 723.0,353.3 727.3,354.2 731.6,354.8 735.8,347.3 740.1,298.9 744.4,246.8 748.7,196.7 752.9,149.6 757.2,109.5 761.5,86.4 765.8,108.5 770.0,134.7 774.3,159.9 778.6,185.0 782.8,203.3 787.1,211.5 791.4,217.2 795.7,223.6 799.9,224.9 804.2,228.8 808.5,233.7 812.7,243.5 817.0,254.3 821.3,266.1 825.6,284.3 829.8,297.3 834.1,310.7 838.4,320.4 842.7,330.5 846.9,337.8 851.2,340.0 855.5,346.0 859.7,349.6 864.0,353.7 868.3,354.1 872.6,355.0 876.8,359.4 881.1,359.9 885.4,359.7 889.7,358.1 893.9,360.1 898.2,359.4 902.5,355.5 906.7,354.3 911.0,351.9 915.3,350.1 919.6,345.3 923.8,343.8 928.1,344.2 932.4,342.4 936.6,341.9 940.9,340.6 945.2,341.6 949.5,340.0 953.7,335.1 958.0,330.9 962.3,327.1 966.6,325.8 970.8,322.0 975.1,319.5 979.4,322.0 983.6,323.7 987.9,324.3 992.2,321.7 996.5,321.5 1000.7,319.8 1005.0,314.2 1009.3,309.9 1013.5,305.7 1017.8,302.4 1022.1,297.9 1026.4,295.0 1030.6,298.2 1034.9,300.3 1039.2,302.4 1043.5,306.1 1047.7,308.3 1052.0,278.8" fill="none" stroke="#059669" stroke-width="1.6"/>
<text x="348" y="408" font-family="sans-serif" font-size="12" fill="#059669">MA6</text>
<polyline points="48.0,326.7 52.3,326.8 56.7,329.0 61.0,333.0 65.3,335.8 69.6,335.6 74.0,333.6 78.3,332.9 82.6,331.6 86.9,333.3 91.3,334.1 95.6,333.9 99.9,330.8 104.3,328.6 108.6,327.9 112.9,329.0 117.2,326.8 121.6,322.3 125.9,316.0 130.2,309.2 134.6,303.0 138.9,298.2 143.2,292.1 147.5,285.0 151.9,272.7 156.2,261.3 160.5,251.6 164.8,244.2 169.2,235.2 173.5,223.5 177.8,212.0 182.2,201.0 186.5,191.1 190.8,185.2 195.1,181.7 199.5,178.4 203.8,171.7 208.1,167.8 212.4,166.5 216.8,167.8 221.1,169.3 225.4,169.6 229.8,169.5 234.1,168.6 238.4,168.8 242.7,172.0 247.1,173.9 251.4,176.7 255.7,175.2 260.1,174.4 264.4,175.6 268.7,178.9 273.0,181.0 277.4,179.8 281.7,178.4 286.0,177.8 290.3,176.6 294.7,178.7 299.0,181.5 303.3,183.8 307.7,182.8 312.0,182.9 316.3,186.3 320.6,191.8 325.0,195.9 329.3,197.5 333.6,197.4 337.9,197.0 342.3,198.4 346.6,201.7 350.9,206.0 355.3,208.7 359.6,206.5 363.9,206.9 368.2,210.3 372.6,215.8 376.9,219.3 381.2,218.6 385.6,218.1 389.9,217.5 394.2,218.6 398.5,221.8 402.9,226.2 407.2,230.7 411.5,231.6 415.8,233.6 420.2,238.2 424.5,245.5 428.8,250.4 433.2,253.2 437.5,255.2 441.8,255.0 446.1,255.6 450.5,258.8 454.8,262.5 459.1,266.8 463.4,265.7 467.8,267.0 472.1,270.1 476.4,275.9 480.8,279.9 485.1,281.5 489.4,282.1 493.7,283.5 498.1,285.0 502.4,289.2 506.7,293.1 511.1,297.2 515.4,298.7 519.7,301.9 524.0,305.6 528.4,311.1 532.7,315.4 537.0,316.4 541.3,316.6 545.7,316.4 550.0,315.8 554.3,316.7 558.7,318.4 563.0,320.4 567.3,318.9 571.6,317.7 576.0,319.7 580.3,323.5 584.6,326.2 588.9,327.0 593.3,326.6 597.6,325.2 601.9,324.8 606.3,326.8 610.6,328.7 614.9,330.3 619.2,328.5 623.6,327.9 627.9,329.2 632.2,333.1 636.6,336.8 640.9,336.5 645.2,336.2 649.5,336.0 653.9,336.6 658.2,339.3 662.5,342.4 666.8,344.5 671.2,342.0 675.5,341.1 679.8,343.1 684.2,347.1 688.5,349.8 692.8,349.5 697.1,348.3 701.5,346.9 705.8,347.3 710.1,350.6 714.4,352.7 718.8,354.5 723.1,352.1 727.4,350.7 731.8,347.1 736.1,316.8 740.4,283.9 744.7,251.1 749.1,218.3 753.4,190.2 757.7,169.2 762.1,153.0 766.4,137.1 770.7,126.2 775.0,142.4 779.4,161.2 783.7,179.1 788.0,198.1 792.3,213.2 796.7,218.5 801.0,222.5 805.3,227.2 809.7,234.8 814.0,244.3 818.3,255.1 822.6,267.1 827.0,275.9 831.3,285.3 835.6,298.4 839.9,312.1 844.3,324.4 848.6,331.4 852.9,337.1 857.3,341.0 861.6,344.7 865.9,350.0 870.2,354.0 874.6,357.4 878.9,356.7 883.2,355.6 887.6,356.8 891.9,359.4 896.2,360.5 900.5,358.5 904.9,356.8 909.2,353.5 913.5,350.6 917.8,349.7 922.2,349.9 926.5,349.3 930.8,344.9 935.2,341.8 939.5,340.7 943.8,341.2 948.1,342.0 952.5,339.2 956.8,335.3 961.1,330.7 965.4,328.4 969.8,327.7 974.1,327.1 978.4,326.8 982.8,323.4 987.1,320.2 991.4,319.5 995.7,321.4 1000.1,322.2 1004.4,319.1 1008.7,315.3 1013.1,311.0 1017.4,306.4 1021.7,305.0 1026.0,303.7 1030.4,304.1 1034.7,301.2 1039.0,299.0 1043.3,300.4 1047.7,303.8 1052.0,273.1" fill="none" stroke="#7c3aed" stroke-width="1.6"/>
<text x="498" y="408" font-family="sans-serif" font-size="12" fill="#7c3aed">MA9</text>
</svg>