<svg xmlns="http://www.w3.org/2000/svg" width="1100" height="420" viewBox="0 0 1100 420">
<rect width="100%" height="100%" fill="white"/>
<text x="48" y="28" font-family="sans-serif" font-size="18">Seven-county standardized employment: Raw / MA3 / MA6 / MA9</text>
<line x1="48.0" y1="48" x2="48.0" y2="372" stroke="#e5e7eb"/>
<text x="48.0" y="388" text-anchor="middle" font-family="sans-serif" font-size="10">2006-05</text>
<line x1="248.8" y1="48" x2="248.8" y2="372" stroke="#e5e7eb"/>
<text x="248.8" y="388" text-anchor="middle" font-family="sans-serif" font-size="10">2010-05</text>
<line x1="449.6" y1="48" x2="449.6" y2="372" stroke="#e5e7eb"/>
<text x="449.6" y="388" text-anchor="middle" font-family="sans-serif" font-size="10">2014-05</text>
<line x1="650.4" y1="48" x2="650.4" y2="372" stroke="#e5e7eb"/>
<text x="650.4" y="388" text-anchor="middle" font-family="sans-serif" font-size="10">2018-05</text>
<line x1="851.2" y1="48" x2="851.2" y2="372" stroke="#e5e7eb"/>
<text x="851.2" y="388" text-anchor="middle" font-family="sans-serif" font-size="10">2022-05</text>
<line x1="1052.0" y1="48" x2="1052.0" y2="372" stroke="#e5e7eb"/>
<text x="1052.0" y="388" text-anchor="middle" font-family="sans-serif" font-size="10">2026-04</text>
<polyline points="48.0,350.0 52.1,337.2 56.4,326.2 60.7,338.3 64.8,345.1 69.1,327.5 73.3,327.3 77.5,322.0 81.8,342.8 85.7,337.9 90.0,327.7 94.1,331.0 98.4,328.7 102.5,317.1 106.8,300.5 111.1,317.6 115.2,321.5 119.5,310.1 123.6,302.9 127.9,307.1 132.2,318.9 136.2,314.1 140.5,306.2 144.6,299.1 148.9,303.5 153.0,296.8 157.3,278.6 161.6,299.0 165.7,310.4 170.0,303.7 174.2,311.7 178.4,320.6 182.7,347.2 186.6,347.8 190.9,347.0 195.0,344.1 199.3,352.1 203.4,345.4 207.7,330.0 212.0,352.9 216.1,372.0 220.4,364.7 224.5,359.3 228.8,369.2 233.1,343.7 237.0,340.7 241.2,329.6 245.4,318.8 249.7,320.9 253.8,317.5 258.1,303.0 262.4,319.4 266.5,321.9 270.8,318.6 274.9,320.4 279.2,316.4 283.5,327.5 287.3,320.1 291.6,312.5 295.8,307.9 300.0,311.1 304.2,311.8 308.5,296.4 312.7,308.4 316.9,304.3 321.2,293.5 325.3,292.4 329.6,291.6 333.9,307.6 337.9,297.3 342.1,288.7 346.3,286.0 350.6,281.8 354.7,276.3 359.0,266.0 363.3,279.3 367.4,268.6 371.7,253.9 375.8,255.5 380.1,256.0 384.4,272.0 388.2,263.7 392.5,259.0 396.7,253.3 400.9,251.0 405.1,249.4 409.4,239.0 413.6,256.0 417.8,251.5 422.1,259.6 426.2,245.6 430.5,246.1 434.7,255.1 438.6,245.7 442.9,237.9 447.0,236.7 451.3,231.2 455.5,224.7 459.7,216.1 464.0,233.0 468.2,228.1 472.4,212.8 476.6,214.2 480.8,217.1 485.1,225.2 489.0,218.7 493.3,214.2 497.4,206.9 501.7,205.2 505.8,203.4 510.1,192.8 514.4,208.2 518.5,213.7 522.8,198.5 526.9,194.2 531.2,192.5 535.5,188.9 539.5,174.8 543.8,166.6 547.9,166.7 552.2,167.9 556.3,160.7 560.6,146.6 564.9,164.0 569.0,162.3 573.3,151.3 577.5,148.7 581.7,151.2 586.0,155.0 589.9,139.5 594.2,126.2 598.3,127.8 602.6,129.4 606.7,120.6 611.0,108.5 615.3,128.5 619.4,118.5 623.7,123.0 627.8,121.6 632.1,127.4 636.4,137.5 640.3,115.2 644.5,109.0 648.7,111.6 653.0,109.8 657.1,103.3 661.4,87.9 665.7,119.6 669.8,113.2 674.1,100.2 678.2,97.0 682.5,98.1 686.8,110.3 690.6,90.5 694.9,82.1 699.1,86.4 703.3,82.9 707.5,72.3 711.8,52.4 716.0,74.6 720.2,63.7 724.5,56.4 728.6,52.2 732.9,55.8 737.2,62.3 741.2,48.0 745.4,92.3 749.6,321.6 753.9,345.8 758.0,294.8 762.3,277.1 766.6,255.0 770.7,257.4 775.0,234.3 779.1,240.3 783.4,247.3 787.7,258.6 791.5,242.9 795.8,230.1 800.0,226.9 804.2,219.9 808.4,210.8 812.7,186.3 816.9,201.2 821.1,194.9 825.4,178.5 829.5,166.5 833.8,163.3 838.1,174.1 841.9,153.2 846.2,136.4 850.3,138.3 854.6,133.3 858.8,130.0 863.0,116.9 867.3,129.6 871.5,128.7 875.7,124.7 879.9,126.5 884.2,123.5 888.4,126.3 892.3,114.9 896.6,102.2 900.7,103.7 905.0,108.8 909.1,101.8 913.4,94.1 917.7,113.9 921.8,116.7 926.1,114.1 930.3,108.5 934.5,120.0 938.8,122.2 942.8,114.6 947.1,98.9 951.2,103.8 955.5,113.1 959.7,106.1 963.9,95.3 968.2,119.0 972.4,114.3 976.6,113.0 980.8,119.6 985.1,119.2 989.3,125.7 993.2,125.3 997.5,119.0 1001.6,116.4 1005.9,132.6 1010.0,125.7 1014.3,119.9 1018.6,144.5 1022.7,142.1 1031.2,146.0 1035.4,147.5 1039.7,169.7 1043.6,163.9 1047.9,156.2 1052.0,157.6" fill="none" stroke="#2563eb" stroke-width="1.6"/>
<text x="48" y="408" font-family="sans-serif" font-size="12" fill="#2563eb">Raw</text>
<polyline points="56.4,339.0 60.7,335.1 64.8,337.8 69.1,338.2 73.3,334.5 77.5,326.7 81.8,331.8 85.7,335.4 90.0,337.4 94.1,333.4 98.4,330.2 102.5,326.6 106.8,316.3 111.1,312.6 115.2,314.1 119.5,317.3 123.6,312.3 127.9,307.5 132.2,310.5 136.2,314.3 140.5,314.0 144.6,307.3 148.9,303.7 153.0,300.5 157.3,293.6 161.6,292.1 165.7,296.7 170.0,305.2 174.2,309.5 178.4,312.9 182.7,327.7 186.6,339.9 190.9,348.8 195.0,347.7 199.3,349.2 203.4,348.6 207.7,343.9 212.0,344.2 216.1,353.2 220.4,364.9 224.5,367.0 228.8,366.1 233.1,359.0 237.0,352.8 241.2,339.4 245.4,331.0 249.7,324.3 253.8,320.2 258.1,314.9 262.4,314.3 266.5,315.8 270.8,321.1 274.9,321.4 279.2,319.5 283.5,322.5 287.3,322.5 291.6,321.2 295.8,314.5 300.0,311.5 304.2,311.2 308.5,307.3 312.7,306.5 316.9,303.9 321.2,302.9 325.3,297.5 329.6,293.2 333.9,298.0 337.9,299.7 342.1,298.7 346.3,291.4 350.6,286.2 354.7,282.0 359.0,275.2 363.3,274.4 367.4,271.8 371.7,267.7 375.8,259.7 380.1,255.4 384.4,261.5 388.2,264.3 392.5,265.3 396.7,259.0 400.9,254.7 405.1,251.4 409.4,246.6 413.6,248.3 417.8,249.0 422.1,256.0 426.2,252.4 430.5,250.6 434.7,249.1 438.6,249.2 442.9,246.4 447.0,240.2 451.3,235.3 455.5,230.8 459.7,223.9 464.0,224.5 468.2,225.7 472.4,224.6 476.6,218.2 480.8,214.5 485.1,218.7 489.0,220.2 493.3,219.3 497.4,213.1 501.7,208.5 505.8,204.9 510.1,200.1 514.4,201.2 518.5,204.6 522.8,206.6 526.9,201.8 531.2,194.6 535.5,191.4 539.5,184.9 543.8,176.2 547.9,168.7 552.2,166.4 556.3,164.4 560.6,157.6 564.9,156.3 569.0,156.8 573.3,158.4 577.5,153.3 581.7,149.5 586.0,150.8 589.9,147.7 594.2,139.2 598.3,130.0 602.6,126.6 606.7,124.7 611.0,118.2 615.3,117.9 619.4,117.2 623.7,122.1 627.8,119.7 632.1,122.7 636.4,127.6 640.3,125.5 644.5,119.2 648.7,110.5 653.0,108.7 657.1,106.8 661.4,98.8 665.7,102.1 669.8,105.4 674.1,109.6 678.2,102.0 682.5,96.9 686.8,100.3 690.6,98.1 694.9,92.7 699.1,84.6 703.3,82.0 707.5,78.7 711.8,67.3 716.0,64.5 720.2,61.6 724.5,63.0 728.6,55.4 732.9,52.7 737.2,54.7 741.2,53.3 745.4,65.7 749.6,153.4 753.9,254.1 758.0,322.5 762.3,307.4 766.6,276.6 770.7,264.0 775.0,249.5 779.1,244.5 783.4,241.0 787.7,249.2 791.5,250.0 795.8,244.2 800.0,233.5 804.2,225.7 808.4,219.1 812.7,205.4 816.9,199.1 821.1,193.8 825.4,191.1 829.5,179.4 833.8,168.7 838.1,167.2 841.9,162.7 846.2,153.6 850.3,141.5 854.6,134.8 858.8,132.6 863.0,125.4 867.3,124.2 871.5,123.7 875.7,126.3 879.9,125.2 884.2,123.5 888.4,124.0 892.3,120.1 896.6,112.9 900.7,105.2 905.0,103.1 909.1,103.0 913.4,99.8 917.7,101.5 921.8,106.6 926.1,113.3 930.3,111.5 934.5,112.6 938.8,115.3 942.8,117.4 947.1,110.3 951.2,104.0 955.5,103.5 959.7,106.0 963.9,103.1 968.2,105.1 972.4,107.9 976.6,113.8 980.8,114.0 985.1,115.7 989.3,120.0 993.2,121.9 997.5,121.9 1001.6,118.7 1005.9,121.1 1010.0,123.4 1014.3,124.6 1018.6,128.6 1022.7,134.2" fill="none" stroke="#dc2626" stroke-width="1.6"/>
<polyline points="1039.7,153.2 1043.6,159.3 1047.9,162.3 1052.0,158.2" fill="none" stroke="#dc2626" stroke-width="1.6"/>
<text x="198" y="408" font-family="sans-serif" font-size="12" fill="#dc2626">MA3</text>
<polyline points="69.1,339.8 73.3,335.9 77.5,333.3 81.8,336.1 85.7,336.1 90.0,333.1 94.1,333.7 98.4,333.9 102.5,333.0 106.8,325.8 111.1,322.3 115.2,321.2 119.5,317.6 123.6,313.2 127.9,311.5 132.2,314.7 136.2,314.1 140.5,311.5 144.6,309.6 148.9,309.8 153.0,308.0 157.3,301.1 161.6,298.5 165.7,299.2 170.0,300.0 174.2,301.4 178.4,305.5 182.7,317.3 186.6,325.7 190.9,332.0 195.0,339.0 199.3,345.9 203.4,350.2 207.7,347.3 212.0,348.1 216.1,352.4 220.4,356.0 224.5,357.2 228.8,361.3 233.1,363.7 237.0,361.6 241.2,354.4 245.4,346.5 249.7,340.0 253.8,331.1 258.1,324.1 262.4,320.5 266.5,319.2 270.8,319.1 274.9,319.0 279.2,318.8 283.5,323.0 287.3,323.1 291.6,321.5 295.8,319.7 300.0,318.1 304.2,317.3 308.5,312.0 312.7,309.9 316.9,308.5 321.2,306.1 325.3,302.9 329.6,299.4 333.9,301.3 337.9,299.4 342.1,296.7 346.3,295.4 350.6,293.6 354.7,291.0 359.0,283.9 363.3,280.9 367.4,277.4 371.7,271.9 375.8,267.4 380.1,263.9 384.4,265.0 388.2,262.3 392.5,260.6 396.7,260.5 400.9,259.7 405.1,258.6 409.4,252.9 413.6,251.6 417.8,250.3 422.1,251.4 426.2,250.5 430.5,249.9 434.7,252.7 438.6,250.9 442.9,248.6 447.0,244.7 451.3,242.2 455.5,238.5 459.7,231.9 464.0,229.7 468.2,228.0 472.4,224.0 476.6,221.1 480.8,219.8 485.1,221.3 489.0,218.9 493.3,216.5 497.4,215.5 501.7,214.0 505.8,211.7 510.1,206.1 514.4,204.3 518.5,204.3 522.8,202.8 526.9,200.9 531.2,199.1 535.5,198.4 539.5,192.7 543.8,184.7 547.9,179.3 552.2,174.8 556.3,169.4 560.6,162.1 564.9,160.3 569.0,159.6 573.3,156.9 577.5,153.7 581.7,152.0 586.0,153.5 589.9,149.3 594.2,143.1 598.3,139.1 602.6,135.8 606.7,130.5 611.0,122.5 615.3,120.6 619.4,119.3 623.7,118.5 627.8,117.2 632.1,118.4 636.4,123.3 640.3,121.0 644.5,119.4 648.7,117.4 653.0,115.4 657.1,111.2 661.4,102.8 665.7,103.5 669.8,104.3 674.1,102.4 678.2,100.2 682.5,99.3 686.8,103.2 690.6,98.2 694.9,92.9 699.1,90.5 703.3,88.1 707.5,83.6 711.8,73.7 716.0,71.0 720.2,67.9 724.5,62.8 728.6,57.5 732.9,54.7 737.2,56.4 741.2,51.8 745.4,56.8 749.6,102.4 753.9,152.9 758.0,194.0 762.3,230.9 766.6,266.4 770.7,294.7 775.0,279.6 779.1,261.4 783.4,253.1 787.7,249.9 791.5,247.7 795.8,242.9 800.0,241.6 804.2,238.0 808.4,231.7 812.7,219.3 816.9,212.1 821.1,206.1 825.4,197.8 829.5,188.6 833.8,180.4 838.1,178.3 841.9,170.0 846.2,160.0 850.3,153.1 854.6,147.3 858.8,141.6 863.0,131.8 867.3,127.8 871.5,126.5 875.7,124.1 879.9,122.9 884.2,121.8 888.4,123.4 892.3,120.8 896.6,116.2 900.7,112.6 905.0,109.6 909.1,105.9 913.4,100.4 917.7,100.2 921.8,102.7 926.1,104.5 930.3,104.4 934.5,107.6 938.8,112.4 942.8,112.5 947.1,109.4 951.2,107.6 955.5,108.4 959.7,106.0 963.9,101.4 968.2,102.2 972.4,104.8 976.6,106.4 980.8,107.5 985.1,109.8 989.3,115.0 993.2,116.0 997.5,116.8 1001.6,117.4 1005.9,119.6 1010.0,120.7 1014.3,119.7 1018.6,123.0 1022.7,126.9" fill="none" stroke="#059669" stroke-width="1.6"/>
<polyline points="1052.0,154.2" fill="none" stroke="#059669" stroke-width="1.6"/>
<text x="348" y="408" font-family="sans-serif" font-size="12" fill="#059669">MA6</text>
<polyline points="81.8,339.1 85.7,337.7 90.0,336.6 94.1,337.2 98.4,336.0 102.5,332.7 106.8,329.6 111.1,328.4 115.2,328.4 119.5,324.6 123.6,320.5 127.9,318.1 132.2,316.7 136.2,315.0 140.5,313.8 144.6,313.7 148.9,312.0 153.0,309.2 157.3,305.5 161.6,305.1 165.7,305.5 170.0,303.7 174.2,303.5 178.4,305.1 182.7,310.8 186.6,315.9 190.9,321.8 195.0,329.4 199.3,335.6 203.4,339.7 207.7,342.8 212.0,347.7 216.1,353.7 220.4,355.7 224.5,357.1 228.8,359.6 233.1,359.6 237.0,358.3 241.2,356.5 245.4,355.2 249.7,351.5 253.8,345.2 258.1,338.1 262.4,333.5 266.5,328.0 270.8,325.1 274.9,322.7 279.2,321.2 283.5,322.2 287.3,322.1 291.6,321.5 295.8,322.0 300.0,321.0 304.2,319.9 308.5,317.3 312.7,315.9 316.9,314.5 321.2,310.5 325.3,307.3 329.6,304.8 333.9,304.8 337.9,303.2 342.1,300.5 346.3,299.3 350.6,296.2 354.7,293.0 359.0,289.8 363.3,288.3 367.4,285.7 371.7,279.4 375.8,274.6 380.1,270.8 384.4,269.2 388.2,267.1 392.5,265.1 396.7,263.6 400.9,260.3 405.1,258.0 409.4,256.3 413.6,256.4 417.8,255.8 422.1,254.4 426.2,252.3 430.5,250.8 434.7,251.0 438.6,250.4 442.9,249.1 447.0,248.8 451.3,245.9 455.5,242.8 459.7,237.8 464.0,236.3 468.2,234.3 472.4,229.3 476.6,225.7 480.8,223.3 485.1,222.0 489.0,220.6 493.3,219.4 497.4,218.3 501.7,215.1 505.8,212.3 510.1,210.0 514.4,209.3 518.5,208.9 522.8,205.8 526.9,203.0 531.2,200.4 535.5,198.4 539.5,194.9 543.8,190.7 547.9,187.7 552.2,183.1 556.3,176.9 560.6,171.0 564.9,167.5 569.0,164.1 573.3,159.7 577.5,156.7 581.7,154.9 586.0,153.6 589.9,150.3 594.2,146.3 598.3,144.1 602.6,140.1 606.7,135.3 611.0,130.3 615.3,128.0 619.4,124.2 623.7,120.4 627.8,118.3 632.1,118.5 636.4,119.6 640.3,118.0 644.5,116.6 648.7,117.0 653.0,114.8 657.1,113.0 661.4,108.9 665.7,108.7 669.8,107.1 674.1,102.8 678.2,100.7 682.5,99.4 686.8,99.3 690.6,97.1 694.9,94.7 699.1,94.5 703.3,90.2 707.5,85.5 711.8,80.0 716.0,77.4 720.2,73.4 724.5,67.2 728.6,62.7 732.9,59.7 737.2,56.9 741.2,52.9 745.4,55.3 749.6,86.7 753.9,118.3 758.0,145.2 762.3,170.9 766.6,194.6 770.7,218.0 775.0,238.0 779.1,260.3 783.4,278.3 787.7,270.8 791.5,258.6 795.8,251.0 800.0,245.0 804.2,240.8 808.4,235.3 812.7,229.7 816.9,225.1 821.1,219.0 825.4,209.6 829.5,200.7 833.8,192.9 838.1,186.8 841.9,179.0 846.2,170.3 850.3,164.7 854.6,156.8 858.8,149.2 863.0,142.0 867.3,137.7 871.5,133.7 875.7,127.9 879.9,124.8 884.2,123.3 888.4,121.9 892.3,119.7 896.6,116.5 900.7,114.9 905.0,112.4 909.1,109.3 913.4,105.8 917.7,104.3 921.8,103.5 926.1,102.1 930.3,101.4 934.5,103.4 938.8,105.6 942.8,106.3 947.1,105.9 951.2,107.0 955.5,106.9 959.7,105.7 963.9,103.5 968.2,104.7 972.4,104.1 976.6,103.0 980.8,103.6 985.1,106.0 989.3,108.5 993.2,109.9 997.5,111.4 1001.6,113.8 1005.9,115.4 1010.0,116.7 1014.3,117.5 1018.6,120.3 1022.7,123.0" fill="none" stroke="#7c3aed" stroke-width="1.6"/>
<text x="498" y="408" font-family="sans-serif" font-size="12" fill="#7c3aed">MA9</text>
</svg>