<svg xmlns="http://www.w3.org/2000/svg" width="1100" height="420" viewBox="0 0 1100 420">
<rect width="100%" height="100%" fill="white"/>
<text x="48" y="28" font-family="sans-serif" font-size="18">A / B / C / D overlay</text>
<line x1="48.0" y1="48" x2="48.0" y2="372" stroke="#e5e7eb"/>
<text x="48.0" y="388" text-anchor="middle" font-family="sans-serif" font-size="10">2009-09</text>
<line x1="248.8" y1="48" x2="248.8" y2="372" stroke="#e5e7eb"/>
<text x="248.8" y="388" text-anchor="middle" font-family="sans-serif" font-size="10">2013-02</text>
<line x1="449.6" y1="48" x2="449.6" y2="372" stroke="#e5e7eb"/>
<text x="449.6" y="388" text-anchor="middle" font-family="sans-serif" font-size="10">2016-06</text>
<line x1="650.4" y1="48" x2="650.4" y2="372" stroke="#e5e7eb"/>
<text x="650.4" y="388" text-anchor="middle" font-family="sans-serif" font-size="10">2019-11</text>
<line x1="851.2" y1="48" x2="851.2" y2="372" stroke="#e5e7eb"/>
<text x="851.2" y="388" text-anchor="middle" font-family="sans-serif" font-size="10">2023-03</text>
<line x1="1052.0" y1="48" x2="1052.0" y2="372" stroke="#e5e7eb"/>
<text x="1052.0" y="388" text-anchor="middle" font-family="sans-serif" font-size="10">2026-07</text>
<polyline points="48.0,282.3 53.1,287.8 58.0,287.5 63.0,321.3 68.1,314.2 72.7,301.8 77.7,268.3 82.6,232.2 87.7,212.9 92.6,194.8 97.6,177.2 102.7,169.7 107.6,164.3 112.7,175.6 117.6,182.3 122.6,164.0 127.7,183.1 132.3,184.4 137.3,183.4 142.2,170.3 147.3,167.8 152.2,181.6 157.3,165.2 162.3,168.7 167.2,164.0 172.3,166.6 177.2,149.5 182.2,140.6 187.3,151.5 192.0,149.8 197.1,141.6 202.0,138.6 207.1,141.0 212.0,141.5 217.0,128.9 222.1,127.0 227.0,119.9 232.0,119.7 236.9,111.0 242.0,93.2 247.1,100.2 251.6,98.9 256.7,103.1 261.6,102.8 266.7,108.7 271.6,110.4 276.6,98.4 281.7,99.6 286.6,102.5 291.7,124.4 296.6,124.7 301.6,135.9 306.7,143.9 311.2,142.2 316.3,137.3 321.2,121.7 326.3,117.8 331.2,110.0 336.2,106.1 341.3,105.3 346.2,101.8 351.3,101.2 356.2,96.3 361.2,94.4 366.3,104.0 370.9,103.2 375.9,100.1 380.8,100.2 385.9,103.6 390.8,106.3 395.8,98.5 400.9,97.6 405.8,102.1 410.9,112.8 415.8,113.2 420.8,111.4 425.9,106.6 430.6,94.0 435.7,86.3 440.6,80.8 445.6,80.8 450.5,85.9 455.6,84.4 460.7,88.5 465.6,91.5 470.6,97.7 475.5,95.9 480.6,97.7 485.7,102.5 490.2,96.5 495.3,87.6 500.2,76.1 505.3,77.0 510.2,83.2 515.2,81.8 520.3,84.4 525.2,85.0 530.2,97.7 535.1,97.6 540.2,83.7 545.3,93.1 549.8,90.2 554.9,92.2 559.8,82.3 564.9,80.1 569.8,79.4 574.8,69.0 579.9,74.9 584.8,78.2 589.8,85.1 594.7,80.7 599.8,86.0 604.9,97.2 609.4,88.5 614.5,85.4 619.4,71.6 624.5,76.0 629.4,81.9 634.4,71.5 639.5,71.7 644.4,64.3 649.5,73.6 654.4,69.2 659.4,67.6 664.5,73.7 669.2,75.1 674.3,105.0 679.2,188.2 684.2,248.8 689.1,281.6 694.2,311.6 699.3,322.5 704.2,340.0 709.2,333.9 714.1,304.6 719.2,319.0 724.2,328.2 728.8,335.0 733.9,328.8 738.8,320.3 743.8,311.4 748.7,295.8 753.8,260.2 758.9,243.9 763.8,229.3 768.8,225.6 773.7,218.3 778.8,185.3 783.9,189.6 788.4,178.5 793.5,160.4 798.4,141.9 803.4,134.7 808.3,132.3 813.4,123.0 818.5,121.0 823.4,122.7 828.4,130.7 833.3,135.5 838.4,140.3 843.5,149.6 848.0,149.6 853.1,149.5 858.0,143.2 863.1,148.4 868.0,154.8 873.0,155.2 878.1,164.2 883.0,174.7 888.0,189.5 892.9,189.5 898.0,185.9 903.1,194.2 907.8,194.8 912.9,189.7 917.8,180.3 922.8,189.6 927.7,195.6 932.8,192.2 937.8,195.1 942.7,204.7 947.8,213.7 952.7,216.7 957.8,203.0 962.8,210.9 967.4,211.5 972.5,219.8 977.4,220.8 982.4,232.0 987.3,238.1 992.4,239.3 997.5,247.9 1002.4,255.9 1007.4,263.5 1012.3,259.8 1017.4,259.6 1022.4,268.8 1027.0,268.3 1032.1,265.2 1037.0,261.4 1042.0,266.2 1046.9,266.2 1052.0,266.2" fill="none" stroke="#2563eb" stroke-width="1.6"/>
<text x="48" y="408" font-family="sans-serif" font-size="12" fill="#2563eb">A</text>
<polyline points="63.0,325.1 68.1,310.8 72.7,300.9 77.7,271.7 82.6,266.1 87.7,249.4 92.6,224.5 97.6,202.3 102.7,192.7 107.6,185.3 112.7,180.5 117.6,177.2 122.6,146.6 127.7,164.1 132.3,170.9 137.3,174.6 142.2,175.1 147.3,172.9 152.2,177.4 157.3,165.1 162.3,170.1 167.2,173.0 172.3,156.0 177.2,139.9 182.2,147.9 187.3,160.4 192.0,161.1 197.1,149.4 202.0,142.9 207.1,133.8 212.0,125.6 217.0,124.4 222.1,134.2 227.0,135.5 232.0,120.4 236.9,109.1 242.0,89.8 247.1,100.3 251.6,105.3 256.7,104.4 261.6,100.4 266.7,95.3 271.6,94.1 276.6,95.1 281.7,106.1 286.6,112.8 291.7,114.6 296.6,110.4 301.6,122.6 306.7,130.2 311.2,135.6 316.3,136.0 321.2,135.9 326.3,130.0 331.2,123.4 336.2,106.1 341.3,108.8 346.2,109.0 351.3,101.2 356.2,94.5 361.2,91.5 366.3,98.1 370.9,101.0 375.9,103.1 380.8,101.7 385.9,97.8 390.8,94.1 395.8,93.5 400.9,102.1 405.8,110.5 410.9,108.4 415.8,104.2 420.8,102.6 425.9,99.6 430.6,95.4 435.7,89.8 440.6,87.1 445.6,84.2 450.5,78.1 455.6,77.1 460.7,85.2 465.6,91.2 470.6,87.9 475.5,81.4 480.6,88.9 485.7,98.3 490.2,100.2 495.3,94.8 500.2,86.9 505.3,80.1 510.2,78.3 515.2,76.9 520.3,85.2 525.2,87.1 530.2,84.6 535.1,80.8 540.2,73.5 545.3,88.5 549.8,91.5 554.9,89.3 559.8,85.0 564.9,81.1 569.8,82.5 574.8,74.2 579.9,81.3 584.8,79.5 589.8,74.4 594.7,68.5 599.8,80.1 604.9,92.3 609.4,94.4 614.5,91.0 619.4,84.4 624.5,74.9 629.4,70.1 634.4,71.9 639.5,80.6 644.4,78.1 649.5,67.2 654.4,60.0 659.4,60.8 664.5,70.8 669.2,76.2 674.3,95.9 679.2,162.1 684.2,206.3 689.1,238.0 694.2,262.3 699.3,281.6 704.2,304.9 709.2,321.0 714.1,333.5 719.2,372.0 724.2,367.2 728.8,338.7 733.9,322.3 738.8,321.1 743.8,324.5 748.7,314.6 753.8,297.8 758.9,283.0 763.8,265.1 768.8,243.8 773.7,229.8 778.8,191.5 783.9,186.3 788.4,179.7 793.5,172.4 798.4,168.2 803.4,151.1 808.3,139.2 813.4,128.2 818.5,126.4 823.4,125.3 828.4,123.3 833.3,122.9 838.4,129.8 843.5,137.7 848.0,142.0 853.1,140.9 858.0,140.5 863.1,142.9 868.0,149.1 873.0,149.0 878.1,154.8 883.0,163.3 888.0,169.3 892.9,171.4 898.0,171.6 903.1,184.8 907.8,189.5 912.9,187.8 917.8,190.0 922.8,188.2 927.7,191.9 932.8,190.5 937.8,195.3 942.7,196.2 947.8,199.0 952.7,200.4 957.8,196.3 962.8,207.8 967.4,211.8 972.5,216.1 977.4,219.4 982.4,221.9 987.3,227.5 992.4,233.1 997.5,241.8 1002.4,249.9 1007.4,249.8 1012.3,252.1 1017.4,255.8 1022.4,267.3 1027.0,271.1 1032.1,271.5 1037.0,271.2 1042.0,270.6 1046.9,270.6 1052.0,270.6" fill="none" stroke="#dc2626" stroke-width="1.6"/>
<text x="198" y="408" font-family="sans-serif" font-size="12" fill="#dc2626">B</text>
<polyline points="48.0,282.3 53.1,287.8 58.0,287.5 63.0,324.6 68.1,317.9 72.7,307.6 77.7,276.8 82.6,243.1 87.7,224.3 92.6,205.4 97.6,185.8 102.7,176.1 107.6,170.9 112.7,179.8 117.6,184.6 122.6,166.1 127.7,185.2 132.3,185.8 137.3,183.5 142.2,170.8 147.3,167.0 152.2,178.0 157.3,161.4 162.3,164.1 167.2,159.9 172.3,161.8 177.2,145.2 182.2,137.1 187.3,147.1 192.0,145.1 197.1,135.1 202.0,133.7 207.1,135.9 212.0,135.1 217.0,125.1 222.1,123.4 227.0,117.6 232.0,117.1 236.9,108.4 242.0,90.5 247.1,95.4 251.6,92.8 256.7,94.8 261.6,95.1 266.7,99.8 271.6,100.2 276.6,89.9 281.7,90.7 286.6,93.8 291.7,111.3 296.6,110.7 301.6,122.6 306.7,131.5 311.2,130.0 316.3,125.3 321.2,113.2 326.3,109.8 331.2,102.4 336.2,97.7 341.3,96.7 346.2,93.7 351.3,93.2 356.2,89.6 361.2,88.0 366.3,95.8 370.9,94.9 375.9,92.2 380.8,92.8 385.9,94.6 390.8,96.1 395.8,89.3 400.9,88.5 405.8,92.2 410.9,99.9 415.8,100.2 420.8,100.0 425.9,96.6 430.6,86.2 435.7,79.4 440.6,75.8 445.6,75.7 450.5,79.7 455.6,77.1 460.7,79.0 465.6,81.2 470.6,85.4 475.5,84.1 480.6,86.3 485.7,90.1 490.2,84.2 495.3,76.0 500.2,67.0 505.3,66.9 510.2,70.5 515.2,68.9 520.3,70.6 525.2,71.2 530.2,80.4 535.1,80.5 540.2,65.9 545.3,74.3 549.8,71.9 554.9,72.7 559.8,65.1 564.9,62.4 569.8,61.7 574.8,52.8 579.9,56.6 584.8,59.6 589.8,64.4 594.7,61.5 599.8,68.7 604.9,78.0 609.4,70.1 614.5,67.3 619.4,56.9 624.5,59.6 629.4,64.5 634.4,56.3 639.5,56.5 644.4,51.3 649.5,58.0 654.4,55.1 659.4,54.1 664.5,58.8 669.2,59.9 674.3,83.2 679.2,161.9 684.2,227.3 689.1,264.0 694.2,297.8 699.3,311.1 704.2,330.4 709.2,324.3 714.1,302.1 719.2,322.7 724.2,329.2 728.8,334.5 733.9,327.7 738.8,320.4 743.8,312.4 748.7,299.8 753.8,269.3 758.9,254.9 763.8,241.7 768.8,236.0 773.7,228.1 778.8,194.7 783.9,197.5 788.4,186.0 793.5,167.7 798.4,148.8 803.4,139.8 808.3,134.8 813.4,124.4 818.5,121.4 823.4,122.1 828.4,127.0 833.3,129.1 838.4,133.4 843.5,141.8 848.0,141.3 853.1,140.3 858.0,134.8 863.1,139.1 868.0,144.7 873.0,144.7 878.1,153.2 883.0,162.5 888.0,175.5 892.9,176.1 898.0,172.3 903.1,180.4 907.8,180.9 912.9,176.6 917.8,169.1 922.8,177.2 927.7,182.8 932.8,180.4 937.8,184.0 942.7,192.3 947.8,200.2 952.7,203.5 957.8,190.2 962.8,198.7 967.4,200.5 972.5,208.5 977.4,210.6 982.4,222.2 987.3,228.2 992.4,230.0 997.5,239.4 1002.4,248.0 1007.4,255.4 1012.3,252.7 1017.4,254.6 1022.4,265.6 1027.0,265.6 1032.1,261.9 1037.0,258.8 1042.0,263.4 1046.9,263.4 1052.0,263.4" fill="none" stroke="#059669" stroke-width="1.6"/>
<text x="348" y="408" font-family="sans-serif" font-size="12" fill="#059669">C</text>
<polyline points="63.0,325.1 68.1,310.8 72.7,300.9 77.7,280.5 82.6,274.3 87.7,257.6 92.6,233.6 97.6,213.0 102.7,202.5 107.6,193.5 112.7,185.6 117.6,180.3 122.6,151.9 127.7,167.5 132.3,171.8 137.3,173.9 142.2,175.0 147.3,172.9 152.2,176.0 157.3,163.8 162.3,167.6 167.2,169.5 172.3,151.4 177.2,135.4 182.2,143.5 187.3,154.2 192.0,154.2 197.1,142.5 202.0,137.0 207.1,128.0 212.0,120.6 217.0,120.6 222.1,129.0 227.0,129.9 232.0,116.9 236.9,107.0 242.0,88.5 247.1,97.0 251.6,99.6 256.7,96.9 261.6,93.3 266.7,88.1 271.6,86.6 276.6,87.5 281.7,96.0 286.6,100.9 291.7,101.8 296.6,98.3 301.6,110.9 306.7,117.5 311.2,122.0 316.3,122.5 321.2,123.6 326.3,118.4 331.2,112.3 336.2,98.2 341.3,100.4 346.2,100.5 351.3,92.6 356.2,87.8 361.2,85.3 366.3,90.7 370.9,92.4 375.9,93.6 380.8,93.1 385.9,89.8 390.8,86.3 395.8,85.4 400.9,91.9 405.8,98.2 410.9,96.3 415.8,93.1 420.8,92.7 425.9,89.8 430.6,86.8 435.7,81.9 440.6,80.2 445.6,77.6 450.5,72.2 455.6,71.4 460.7,77.9 465.6,82.8 470.6,79.2 475.5,72.5 480.6,79.3 485.7,86.3 490.2,87.9 495.3,82.8 500.2,76.0 505.3,70.0 510.2,67.9 515.2,65.8 520.3,71.9 525.2,73.2 530.2,70.4 535.1,67.1 540.2,57.8 545.3,69.3 549.8,71.5 554.9,69.8 559.8,66.9 564.9,63.2 569.8,63.5 574.8,56.8 579.9,61.2 584.8,59.4 589.8,55.4 594.7,51.3 599.8,63.4 604.9,72.4 609.4,73.8 614.5,70.9 619.4,66.3 624.5,58.5 629.4,55.2 634.4,56.8 639.5,63.5 644.4,61.5 649.5,52.8 654.4,48.0 659.4,48.7 664.5,56.1 669.2,60.5 674.3,75.8 679.2,135.2 684.2,179.9 689.1,215.1 694.2,242.7 699.3,265.2 704.2,290.6 709.2,308.7 714.1,322.8 719.2,362.9 724.2,359.4 728.8,338.3 733.9,324.4 738.8,322.8 743.8,324.6 748.7,315.5 753.8,300.9 758.9,288.8 763.8,273.1 768.8,253.4 773.7,240.4 778.8,203.3 783.9,197.2 788.4,189.5 793.5,181.8 798.4,176.6 803.4,157.7 808.3,144.7 813.4,133.5 818.5,129.5 823.4,126.5 828.4,122.9 833.3,121.4 838.4,126.7 843.5,132.0 848.0,134.5 853.1,133.1 858.0,132.4 863.1,133.9 868.0,139.1 873.0,139.3 878.1,144.5 883.0,151.8 888.0,156.4 892.9,158.5 898.0,158.4 903.1,171.1 907.8,175.4 912.9,173.9 917.8,176.8 922.8,174.9 927.7,178.5 932.8,178.3 937.8,182.9 942.7,183.7 947.8,185.6 952.7,187.4 957.8,182.7 962.8,193.9 967.4,198.2 972.5,203.5 977.4,207.5 982.4,210.6 987.3,216.5 992.4,222.6 997.5,232.0 1002.4,240.6 1007.4,240.8 1012.3,244.5 1017.4,249.6 1022.4,261.6 1027.0,265.7 1032.1,266.6 1037.0,267.9 1042.0,267.1 1046.9,267.1 1052.0,267.1" fill="none" stroke="#7c3aed" stroke-width="1.6"/>
<text x="498" y="408" font-family="sans-serif" font-size="12" fill="#7c3aed">D</text>
</svg>